<svg xmlns="http://www.w3.org/2000/svg" version="1.1" xmlns:xlink="http://www.w3.org/1999/xlink" xmlns:svgjs="http://svgjs.dev/svgjs" width="376.74" height="376.74"><svg xmlns="http://www.w3.org/2000/svg" viewBox="0 0 376.74 376.74">
  <defs>
    <style>
      .cls-1 {
        fill: #f2f2f2;
      }

      .cls-2 {
        fill: #294a70;
      }
    </style>
  </defs>
  <g id="SvgjsG1089" data-name="Ebene 2">
    <circle class="cls-2" cx="188.5" cy="188.5" r="188.5"></circle>
  </g>
  <g id="SvgjsG1088" data-name="Ebene 3">
    <path class="cls-1" d="M119.58,217.9c-1.87,1.29-3.53,2.74-5.43,3.66-1.51.73-3.31,1.1-5,1.15-4,.1-6.49-2.87-5.91-6.82.19-1.29.59-2.57,1.03-3.81.95-2.69-.36-4.46-3.19-4.15-1.37.15-2.71.55-4.08.66-2.73.22-3.28-.33-3.34-3.07,0-.24-.04-.47-.06-.77-.56.17-1.07.35-1.59.47-1.13.26-2.02.11-2.77-1.03-1.43-2.17-2.86-2.4-5.03-.99-1.41.92-2.72,1.98-4.12,2.9-1.35.88-2.82,1.16-4.2.11-1.33-1-1.09-2.44-.74-3.81.46-1.8,1.1-3.56,1.48-5.38.51-2.47-.24-3.4-2.75-3.77-1.18-.18-2.42-.2-3.53-.59-3.09-1.09-3.59-3.83-1.12-5.93,1.33-1.12,2.79-2.09,4.14-3.18,1.01-.81,1.51-1.71.78-3.12-.79-1.53-.22-2.37,1.47-2.2,1.84.18,3.66.62,5.47,1,1.5.32,2.51.32,3.05-1.61.83-2.99,3.37-4.06,6.22-4.37,2.86-.31,5.75-.41,8.6-.75,3.47-.41,6.47-1.71,8.42-5.06-2.36-.12-4.63.02-6.79-.39-2.91-.56-5.91-1.19-8.58-2.42-4.79-2.22-5.32-5.88-1.77-9.81.76-.84,2.06-1.54,2.21-2.45.12-.74-1.16-1.68-1.73-2.58-1.64-2.56-.93-4.16,2.12-4.68,2.48-.42,5.01-.63,7.47-1.13,3.67-.75,6.67-2.56,8.65-5.9.88-1.49,1.19-2.98.77-4.64-.12-.46-.12-.96-.25-1.42-.72-2.58,0-4.6,2.25-6.08,1.49-.98,2.06-2.23,1.29-4-.28-.64-.29-1.41-.33-2.12-.15-3.04,1.09-4.52,4.17-4.6,2.21-.06,4.43.24,6.65.33,1.14.05,2.29.11,3.41-.02,3.3-.38,4.64-3.28,2.59-5.86-1.6-2.01-3.67-3.64-5.3-5.63-1.23-1.5-2.48-3.18-3.04-4.99-1.13-3.67.18-6.93,3.32-8.97,3.09-2.01,6.51-3.55,9.85-5.16,2.97-1.43,6.07-2.58,9.03-4.01,2.57-1.24,4.53-3.14,5.34-6.01.1-.34.27-.66.42-1,2.47-5.78,5.12-7.52,11.34-7.47.96,0,1.91,0,3.07,0-.38-.89-.78-1.71-1.1-2.57-1.23-3.3-.09-5.32,3.36-5.76,2.38-.3,4.79-.34,7.16-.65,3.95-.51,6.73-2.65,8.31-6.34.4-.94.82-1.87,1.27-2.78.53-1.09,1.41-1.52,2.64-1.48,1.37.05,1.92.6,1.86,2.01-.14,3.27.94,4.43,4.2,5.02,2.64.48,5.12-.05,7.58-.94,1.12-.41,2.26-.82,3.43-1.04,1.31-.25,2.42.26,2.86,1.6.45,1.36-.61,1.96-1.59,2.42-1.25.58-2.58.98-3.84,1.53-1.5.65-3.1,1.28-3.11,3.3-.01,2.27,1.39,4.5,3.6,4.82,2.31.34,4.82.4,7.07-.12,2.77-.64,5.37-2,8.04-3.05.22-.09.42-.24.63-.35,4.78-2.48,7.12-1.03,6.9,4.32-.1,2.46-.53,4.94-.34,7.37.14,1.76.63,3.81,1.71,5.12,2.96,3.61,8.5,2.79,10.34-1.54,1.02-2.4,3.36-2.95,6.05-2.53,2.69.42,4.83,2.41,4.89,4.79.04,1.72-.34,3.44-.56,5.16-.23,1.84-.75,3.68-.69,5.51.14,3.93,2.63,6.45,5.78,8.38,4.62,2.84,9.82,4.09,15.01,5.36,3.38.82,6.78,1.56,10.12,2.54,4.37,1.28,5.89,3.49,6.05,8.02.02.61.54,1.3,1,1.79.65.69,1.52,1.17,2.2,1.84.3.3.56.87.51,1.27-.15,1.18-.23,2.48-.8,3.47-.64,1.12-1.62,2.25-2.73,2.84-1.28.68-2.86.78-4.33,1.13.28,2.42,1.83,4.25,4.17,4.85.7.18,1.42.25,2.12.44,1.72.46,2.63,1.85,2.46,3.67-.18,1.89-1.25,3.15-3.09,3.08-1.77-.07-3.54-.49-5.29-.88-1.93-.42-3.81-1.08-5.76-1.4-.87-.14-1.99.05-2.71.52-1.52.99-1.14,3.41.72,3.97,2.39.71,4.9,1.07,7.38,1.43,3.8.55,7.62.9,11.41,1.51,1.32.21,2.68.77,3.82,1.48,2.86,1.77,2.64,5.25-.38,6.69-1.35.64-2.81,1.04-4.18,1.64-2.43,1.07-2.86,2.54-1.65,4.93,1.18,2.33,2.87,3.79,5.63,3.75,1.02-.02,2.04.1,3.05.16,3.48.2,3.68.34,4.75,3.67.76,2.37,2.3,4,4.49,5.13,2.68,1.39,3.03,2.41,1.88,5.2-.43,1.05-1.02,2.04-1.5,3.07-.84,1.82-.89,3.66.42,5.26,1.84,2.26,2.12,4.75,1.44,7.46-.22.87-.42,1.75-.66,2.62-.81,2.95-.08,5.42,2.12,7.54,2.02,1.95,1.98,3.17-.09,5.08-2.6,2.4-3.18,5.54-3.36,8.84-.06,1.14-.01,2.3-.2,3.41-.44,2.64-1.79,3.96-4.48,4.06-2.26.08-4.57-.03-6.81-.36-2.28-.34-4.13.29-5.82,1.7-.97.81-1.9,1.66-2.87,2.47-1.69,1.4-3.47,2.26-5.48.59-.15.17-.27.25-.27.32.08,4.26-2.2,6.03-6.46,4.98-.69-.17-1.42-.4-1.99-.81-2.01-1.44-4.15-1.34-6.38-.76-.7.18-1.38.41-2.08.57-2.39.54-2.85.29-3.74-1.96-.7-1.76-1.97-2.87-3.87-3.1-1.49-.19-2.99-.23-4.48-.35-2.25-.18-3.37-1.05-3.61-3.25-.14-1.33-.76-1.64-1.9-1.8-7.71-1.11-14.06,1.52-19.31,7.05-5.94,6.26-9.3,13.96-11.59,22.12-5.54,19.74-6.28,39.66-1.68,59.68.67,2.89,2.04,5.62,3.08,8.43.65,1.74,1.5,3.43,1.9,5.22.62,2.74-.36,4.1-3.12,4.63-1.46.28-2.97.45-4.46.45-8.29.02-16.58,0-24.87-.09-1.48-.02-3-.25-4.43-.63-2.12-.57-2.82-1.76-2.08-3.8.96-2.64,2.02-5.29,3.39-7.73,5.18-9.26,7.8-19.33,9.63-29.65,2.54-14.37,3.56-28.85,2.89-43.42-.32-7.03-1.03-14.04-3.58-20.67-.78-2.04-1.9-4.04-3.22-5.77-2.16-2.84-5.25-3.5-8.54-2.11-1.21.51-2.4,1.15-3.43,1.95-5.59,4.33-11.73,5.46-18.51,3.54-1.37-.39-2.82-.58-4.25-.69-2.86-.21-5.29.7-7.23,2.9-1.31,1.48-2.64,2.98-4.14,4.25-2.01,1.69-3.63,1.63-5.69,0-1.99-1.58-4.21-2.52-6.73-2.74-5.72-.49-6.52-1.15-8.01-6.66-.06-.23-.14-.46-.19-.63M233.1,202.86c-2.76.61-5.39,1.14-8,1.78-2.02.5-3.55,1.61-4.32,3.69-.65,1.74-1.77,2.26-3.57,1.83-2.14-.52-3.91-1.71-4.95-3.61-.72-1.31-1.37-1.11-2.34-.53-2.81,1.69-4.27,4.38-5.13,7.36-2.49,8.68-2.07,17.32.86,25.84.24.69.62,1.34,1.07,2.31,7.5-12.88,16.62-23.59,30.86-29.02-3.54-2.52-4.71-5.76-4.48-9.65"></path>
  </g>
</svg><style>@media (prefers-color-scheme: light) { :root { filter: none; } }
@media (prefers-color-scheme: dark) { :root { filter: invert(100%); } }
</style></svg>